<?xml version="1.0" encoding="UTF-8" standalone="no"?>
<!DOCTYPE svg PUBLIC "-//W3C//DTD SVG 1.1//EN"
 "http://www.w3.org/Graphics/SVG/1.1/DTD/svg11.dtd">
<!-- Generated by graphviz version 2.26.3 (20100126.1600)
 -->
<!-- Title: G Pages: 1 -->
<svg width="572pt" height="266pt"
 viewBox="0.00 0.00 572.00 266.00" xmlns="http://www.w3.org/2000/svg" xmlns:xlink="http://www.w3.org/1999/xlink">
<g id="graph1" class="graph" transform="scale(1 1) rotate(0) translate(4 262)">
<title>G</title>
<polygon fill="white" stroke="white" points="-4,5 -4,-262 569,-262 569,5 -4,5"/>
<g id="graph2" class="cluster"><title>cluster_FatZebra</title>
<polyline fill="none" stroke="gray" points="420,-8 530,-8 "/>
<path fill="none" stroke="gray" d="M530,-8C536,-8 542,-14 542,-20"/>
<polyline fill="none" stroke="gray" points="542,-20 542,-124 "/>
<path fill="none" stroke="gray" d="M542,-124C542,-130 536,-136 530,-136"/>
<polyline fill="none" stroke="gray" points="530,-136 420,-136 "/>
<path fill="none" stroke="gray" d="M420,-136C414,-136 408,-130 408,-124"/>
<polyline fill="none" stroke="gray" points="408,-124 408,-20 "/>
<path fill="none" stroke="gray" d="M408,-20C408,-14 414,-8 420,-8"/>
<text text-anchor="middle" x="475" y="-122.1" font-family="Times Roman,serif" font-size="11.00" fill="gray">FatZebra</text>
</g>
<g id="graph3" class="cluster"><title>cluster_default</title>
<polyline fill="none" stroke="none" points="406,-144 544,-144 "/>
<path fill="none" stroke="none" d="M544,-144C550,-144 556,-150 556,-156"/>
<polyline fill="none" stroke="none" points="556,-156 556,-238 "/>
<path fill="none" stroke="none" d="M556,-238C556,-244 550,-250 544,-250"/>
<polyline fill="none" stroke="none" points="544,-250 406,-250 "/>
<path fill="none" stroke="none" d="M406,-250C400,-250 394,-244 394,-238"/>
<polyline fill="none" stroke="none" points="394,-238 394,-156 "/>
<path fill="none" stroke="none" d="M394,-156C394,-150 400,-144 406,-144"/>
</g>
<!-- \\FatZebra\\Gateway -->
<g id="node2" class="node"><title>\\FatZebra\\Gateway</title>
<a xlink:href="FatZebra.class.html" xlink:title="Gateway" target="_parent">
<polygon fill="none" stroke="black" points="507,-106 443,-106 443,-70 507,-70 507,-106"/>
<text text-anchor="middle" x="475" y="-85.1" font-family="Courier,monospace" font-size="11.00">Gateway</text>
</a>
</g>
<!-- \\FatZebra\\PurchaseRequest -->
<g id="node3" class="node"><title>\\FatZebra\\PurchaseRequest</title>
<a xlink:href="FatZebra.class.html" xlink:title="PurchaseRequest" target="_parent">
<polygon fill="none" stroke="black" points="534,-52 416,-52 416,-16 534,-16 534,-52"/>
<text text-anchor="middle" x="475" y="-31.1" font-family="Courier,monospace" font-size="11.00">PurchaseRequest</text>
</a>
</g>
<!-- \\GatewayTest -->
<g id="node5" class="node"><title>\\GatewayTest</title>
<a xlink:href="test.gateway_tests.html" xlink:title="GatewayTest" target="_parent">
<polygon fill="none" stroke="black" points="520,-242 430,-242 430,-206 520,-206 520,-242"/>
<text text-anchor="middle" x="475" y="-221.1" font-family="Courier,monospace" font-size="11.00">GatewayTest</text>
</a>
</g>
<!-- \\PHPUnit_Framework_TestCase -->
<g id="node8" class="node"><title>\\PHPUnit_Framework_TestCase</title>
<ellipse fill="none" stroke="black" cx="165" cy="-197" rx="164.756" ry="18.3848"/>
<text text-anchor="middle" x="165" y="-193.4" font-family="Times Roman,serif" font-size="14.00" fill="gray">\PHPUnit_Framework_TestCase</text>
</g>
<!-- \\GatewayTest&#45;&gt;\\PHPUnit_Framework_TestCase -->
<g id="edge4" class="edge"><title>\\GatewayTest&#45;&gt;\\PHPUnit_Framework_TestCase</title>
<path fill="none" stroke="black" d="M429.258,-220.016C396.064,-217.125 349.266,-213.049 304.258,-209.129"/>
<polygon fill="none" stroke="black" points="304.349,-205.624 294.083,-208.243 303.742,-212.597 304.349,-205.624"/>
</g>
<!-- \\PurchaseRequestTest -->
<g id="node6" class="node"><title>\\PurchaseRequestTest</title>
<a xlink:href="test.purchase_request_test.html" xlink:title="PurchaseRequestTest" target="_parent">
<polygon fill="none" stroke="black" points="547,-188 403,-188 403,-152 547,-152 547,-188"/>
<text text-anchor="middle" x="475" y="-167.1" font-family="Courier,monospace" font-size="11.00">PurchaseRequestTest</text>
</a>
</g>
<!-- \\PurchaseRequestTest&#45;&gt;\\PHPUnit_Framework_TestCase -->
<g id="edge6" class="edge"><title>\\PurchaseRequestTest&#45;&gt;\\PHPUnit_Framework_TestCase</title>
<path fill="none" stroke="black" d="M402.319,-176.33C372.919,-178.891 337.953,-181.936 304.019,-184.892"/>
<polygon fill="none" stroke="black" points="303.665,-181.409 294.007,-185.764 304.273,-188.383 303.665,-181.409"/>
</g>
</g>
</svg>
